<?xml version="1.0" standalone="no"?>
<!DOCTYPE svg PUBLIC "-//W3C//DTD SVG 20010904//EN"
 "http://www.w3.org/TR/2001/REC-SVG-20010904/DTD/svg10.dtd">
<svg version="1.0" xmlns="http://www.w3.org/2000/svg"
 width="512.000000pt" height="512.000000pt" viewBox="0 0 512.000000 512.000000"
 preserveAspectRatio="xMidYMid meet">
<metadata>
Created by potrace 1.14, written by Peter Selinger 2001-2017
</metadata>
<g transform="translate(0.000000,512.000000) scale(0.100000,-0.100000)"
fill="#000000" stroke="none">
<path d="M1320 5110 c-25 -5 -64 -11 -87 -14 -267 -41 -580 -203 -778 -402
-200 -201 -305 -374 -391 -642 -61 -190 -59 -141 -59 -1482 0 -985 3 -1241 14
-1305 17 -100 63 -265 92 -330 12 -27 23 -52 24 -55 1 -3 14 -30 29 -60 127
-259 353 -490 621 -636 78 -43 208 -101 250 -111 6 -1 35 -9 65 -18 30 -9 102
-24 160 -35 100 -18 165 -19 1330 -17 l1225 2 120 28 c230 55 397 131 572 259
194 143 346 323 457 544 40 80 101 243 112 299 18 92 25 124 31 150 4 17 8
577 9 1245 2 1327 3 1300 -56 1505 -71 246 -203 469 -385 649 -79 79 -217 187
-283 223 -20 11 -55 30 -76 42 -95 54 -313 129 -424 146 -20 3 -62 9 -92 15
-66 11 -2415 11 -2480 0z m2485 -504 c70 -14 218 -67 275 -99 261 -144 448
-380 509 -642 6 -27 15 -61 19 -75 3 -14 8 -556 9 -1205 2 -1023 0 -1191 -13
-1260 -71 -372 -325 -660 -686 -779 -24 -8 -56 -17 -73 -20 -16 -4 -41 -10
-55 -13 -14 -4 -558 -9 -1210 -10 -1117 -2 -1190 -1 -1270 16 -111 24 -212 62
-303 114 -95 54 -125 77 -212 162 -127 126 -213 277 -266 467 l-24 83 -2 1190
c-2 1172 -2 1191 18 1285 66 302 260 556 525 688 106 53 152 69 259 92 86 18
144 19 1275 16 652 -1 1203 -6 1225 -10z"/>
<path d="M3435 4074 c-86 -16 -227 -35 -360 -49 -27 -3 -68 -7 -90 -10 -141
-15 -265 -20 -535 -20 -355 0 -542 13 -720 50 -14 3 -43 8 -64 12 -38 6 -39 5
-32 -18 17 -57 35 -126 41 -154 11 -65 27 -161 30 -185 1 -14 6 -54 10 -90 9
-74 10 -92 20 -210 3 -47 8 -105 10 -130 25 -277 25 -1064 0 -1345 -2 -27 -7
-81 -10 -120 -3 -38 -8 -86 -10 -105 -3 -19 -7 -55 -10 -80 -6 -47 -41 -263
-50 -315 -9 -47 -51 -186 -69 -229 -9 -22 -15 -41 -13 -43 2 -1 26 4 54 12 27
8 85 22 129 30 43 8 90 17 103 20 13 2 49 7 80 10 31 4 67 8 81 11 99 17 640
25 728 11 37 -6 38 -3 16 38 -74 139 -160 434 -180 612 -3 32 -7 60 -9 63 -9
14 -19 175 -18 280 1 131 17 182 73 237 70 69 208 68 320 -2 44 -28 107 -91
126 -127 8 -16 17 -28 19 -28 3 0 5 186 5 413 -1 380 -2 410 -16 387 -28 -44
-122 -114 -181 -136 -112 -42 -217 -17 -280 65 -43 56 -57 108 -57 216 -1 76
3 98 24 139 98 195 465 186 789 -18 20 -13 62 -47 93 -75 31 -28 57 -51 59
-51 2 0 4 214 4 475 0 469 0 475 -20 474 -11 -1 -51 -8 -90 -15z"/>
</g>
</svg>
