<?xml version="1.0" standalone="no"?>
<!DOCTYPE svg PUBLIC "-//W3C//DTD SVG 20010904//EN"
 "http://www.w3.org/TR/2001/REC-SVG-20010904/DTD/svg10.dtd">
<svg version="1.0" xmlns="http://www.w3.org/2000/svg"
 width="512.000000pt" height="512.000000pt" viewBox="0 0 512.000000 512.000000"
 preserveAspectRatio="xMidYMid meet">
<metadata>
Created by potrace 1.14, written by Peter Selinger 2001-2017
</metadata>
<g transform="translate(0.000000,512.000000) scale(0.100000,-0.100000)"
fill="#000000" stroke="none">
<path d="M1395 4762 c-76 -26 -138 -66 -186 -120 -27 -30 -248 -403 -571 -963
-289 -503 -533 -928 -542 -946 -9 -17 -21 -63 -28 -102 -13 -79 -1 -185 28
-244 9 -18 253 -444 542 -947 583 -1013 574 -999 709 -1063 l68 -32 1145 0
1145 0 68 32 c135 64 126 50 710 1065 291 505 538 941 550 970 30 75 30 221 0
296 -12 29 -259 465 -550 969 -368 638 -543 932 -576 969 -34 37 -72 65 -125
91 l-76 38 -1130 2 c-1053 2 -1134 1 -1181 -15z m2317 -155 c31 -15 71 -44 90
-65 37 -41 1073 -1830 1094 -1890 17 -47 17 -137 0 -184 -21 -60 -1057 -1849
-1094 -1890 -19 -21 -59 -50 -90 -65 l-57 -28 -1095 0 -1095 0 -57 28 c-31 15
-71 44 -90 65 -36 41 -1073 1832 -1094 1891 -17 46 -17 136 0 182 19 53 1056
1848 1090 1887 39 44 106 82 163 92 27 4 527 7 1113 6 l1065 -1 57 -28z"/>
<path d="M1669 4264 c-59 -18 -134 -69 -170 -114 -52 -66 -839 -1441 -854
-1492 -19 -66 -18 -139 3 -205 22 -67 815 -1442 865 -1499 23 -26 64 -56 105
-76 l67 -33 875 0 875 0 67 33 c40 20 82 50 104 75 55 64 327 537 327 570 1
56 -80 94 -118 56 -8 -8 -78 -124 -155 -259 -78 -135 -151 -256 -163 -269 -12
-13 -40 -32 -62 -42 -38 -18 -85 -19 -874 -19 -816 0 -836 0 -876 20 -23 11
-51 30 -63 43 -18 20 -770 1315 -821 1414 -28 56 -28 130 0 186 51 100 803
1394 822 1416 12 13 40 32 62 42 38 18 84 19 875 19 791 0 837 -1 875 -19 22
-10 50 -29 62 -42 19 -22 771 -1316 822 -1416 28 -56 28 -130 0 -186 -12 -23
-89 -158 -171 -299 -81 -142 -153 -269 -160 -282 -25 -56 38 -121 93 -96 28
13 35 24 236 374 79 137 150 272 158 299 19 65 18 139 -3 204 -22 67 -815
1442 -865 1499 -23 26 -64 56 -105 76 l-67 33 -860 2 c-723 2 -867 0 -906 -13z"/>
<path d="M2025 3584 c-101 -36 -193 -142 -215 -248 -7 -35 -10 -302 -8 -822
l3 -769 28 -57 c33 -67 80 -112 155 -146 47 -21 65 -24 131 -20 116 7 200 60
253 161 22 39 23 57 28 277 l5 235 260 5 260 5 53 29 c97 54 152 139 159 246
9 122 -55 233 -165 287 l-57 28 -257 3 -258 3 0 99 0 99 343 3 c332 3 343 4
392 26 113 52 180 155 179 277 0 121 -57 210 -166 265 l-61 30 -511 -1 c-416
0 -518 -3 -551 -15z m1072 -150 c53 -39 75 -83 71 -140 -5 -60 -33 -105 -82
-128 -29 -14 -83 -16 -404 -16 -358 0 -370 -1 -396 -21 l-26 -20 0 -204 c0
-185 2 -205 19 -226 l19 -24 299 -5 c266 -4 302 -7 326 -23 83 -54 90 -175 15
-244 -40 -37 -90 -43 -370 -43 -255 0 -269 -1 -288 -20 -19 -19 -20 -33 -20
-273 0 -242 -1 -255 -22 -297 -45 -88 -157 -114 -229 -53 -62 53 -59 10 -59
848 0 733 1 767 19 803 10 20 30 48 44 60 54 51 67 52 579 49 466 -2 477 -2
505 -23z"/>
</g>
</svg>
